<mxfile host="app.diagrams.net" modified="2024-03-06T19:33:04.182Z" agent="Mozilla/5.0 (Windows NT 10.0; Win64; x64) AppleWebKit/537.36 (KHTML, like Gecko) Chrome/122.0.0.0 Safari/537.36" etag="gJFGdrhSA2cOyoamSn_E" version="24.0.2" type="device">
  <diagram name="PÃ¡gina-1" id="JRBYIYP0noZzzOXHbxCU">
    <mxGraphModel dx="1434" dy="784" grid="1" gridSize="10" guides="1" tooltips="1" connect="1" arrows="1" fold="1" page="1" pageScale="1" pageWidth="827" pageHeight="1169" math="0" shadow="0">
      <root>
        <mxCell id="0" />
        <mxCell id="1" parent="0" />
        <mxCell id="49JPbecihKyoFXH3zHof-1" value="USER" style="swimlane;whiteSpace=wrap;html=1;" vertex="1" parent="1">
          <mxGeometry x="290" y="240" width="200" height="150" as="geometry" />
        </mxCell>
        <mxCell id="49JPbecihKyoFXH3zHof-2" value="LOGIN" style="text;html=1;align=center;verticalAlign=middle;resizable=0;points=[];autosize=1;strokeColor=none;fillColor=none;" vertex="1" parent="49JPbecihKyoFXH3zHof-1">
          <mxGeometry x="70" y="50" width="60" height="30" as="geometry" />
        </mxCell>
        <mxCell id="49JPbecihKyoFXH3zHof-3" value="PASSWORD" style="text;html=1;align=center;verticalAlign=middle;resizable=0;points=[];autosize=1;strokeColor=none;fillColor=none;" vertex="1" parent="1">
          <mxGeometry x="345" y="328" width="90" height="30" as="geometry" />
        </mxCell>
        <mxCell id="49JPbecihKyoFXH3zHof-4" value="PROFILE" style="swimlane;whiteSpace=wrap;html=1;" vertex="1" parent="1">
          <mxGeometry x="540" y="240" width="200" height="220" as="geometry" />
        </mxCell>
        <mxCell id="49JPbecihKyoFXH3zHof-5" value="NAME" style="text;html=1;align=center;verticalAlign=middle;resizable=0;points=[];autosize=1;strokeColor=none;fillColor=none;" vertex="1" parent="49JPbecihKyoFXH3zHof-4">
          <mxGeometry x="70" y="50" width="60" height="30" as="geometry" />
        </mxCell>
        <mxCell id="49JPbecihKyoFXH3zHof-6" value="SURNAME" style="text;html=1;align=center;verticalAlign=middle;resizable=0;points=[];autosize=1;strokeColor=none;fillColor=none;" vertex="1" parent="49JPbecihKyoFXH3zHof-4">
          <mxGeometry x="60" y="80" width="80" height="30" as="geometry" />
        </mxCell>
        <mxCell id="49JPbecihKyoFXH3zHof-7" value="DATEOFBIRTH" style="text;html=1;align=center;verticalAlign=middle;resizable=0;points=[];autosize=1;strokeColor=none;fillColor=none;" vertex="1" parent="49JPbecihKyoFXH3zHof-4">
          <mxGeometry x="45" y="110" width="110" height="30" as="geometry" />
        </mxCell>
        <mxCell id="49JPbecihKyoFXH3zHof-8" value="COMMENTS" style="text;html=1;align=center;verticalAlign=middle;resizable=0;points=[];autosize=1;strokeColor=none;fillColor=none;" vertex="1" parent="49JPbecihKyoFXH3zHof-4">
          <mxGeometry x="55" y="140" width="90" height="30" as="geometry" />
        </mxCell>
        <mxCell id="49JPbecihKyoFXH3zHof-9" value="ROL" style="text;html=1;align=center;verticalAlign=middle;resizable=0;points=[];autosize=1;strokeColor=none;fillColor=none;" vertex="1" parent="49JPbecihKyoFXH3zHof-4">
          <mxGeometry x="75" y="170" width="50" height="30" as="geometry" />
        </mxCell>
        <mxCell id="49JPbecihKyoFXH3zHof-10" value="CREDENTIALS" style="swimlane;whiteSpace=wrap;html=1;" vertex="1" parent="1">
          <mxGeometry x="800" y="240" width="200" height="200" as="geometry" />
        </mxCell>
        <mxCell id="49JPbecihKyoFXH3zHof-11" value="ADRESS" style="text;html=1;align=center;verticalAlign=middle;resizable=0;points=[];autosize=1;strokeColor=none;fillColor=none;" vertex="1" parent="49JPbecihKyoFXH3zHof-10">
          <mxGeometry x="65" y="50" width="70" height="30" as="geometry" />
        </mxCell>
        <mxCell id="49JPbecihKyoFXH3zHof-12" value="PHONE" style="text;html=1;align=center;verticalAlign=middle;resizable=0;points=[];autosize=1;strokeColor=none;fillColor=none;" vertex="1" parent="49JPbecihKyoFXH3zHof-10">
          <mxGeometry x="65" y="88" width="70" height="30" as="geometry" />
        </mxCell>
        <mxCell id="49JPbecihKyoFXH3zHof-13" value="EMAIL" style="text;html=1;align=center;verticalAlign=middle;resizable=0;points=[];autosize=1;strokeColor=none;fillColor=none;" vertex="1" parent="49JPbecihKyoFXH3zHof-10">
          <mxGeometry x="70" y="130" width="60" height="30" as="geometry" />
        </mxCell>
      </root>
    </mxGraphModel>
  </diagram>
</mxfile>
